PathFileType	4	(X/Y/Z)	output.trc
DataRate	CameraRate	NumFrames	NumMarkers	Units	OrigDataRate	OrigDataStartFrame	OrigNumFrames
100	100	17	23	m	100	4964	5673
Frame#	Time	C7			T8			EL			EM			US			RS			AA			Fore_Clus_1			Fore_Clus_2			Fore_Clus_3			Fore_Clus_4			Hum_Clus_1			Hum_Clus_2			Hum_Clus_3			Hum_Clus_4			Thor_Clus_1			Thor_Clus_2			Thor_Clus_3			Thor_Clus_4			IJ			PX			GH			Thor_Clus_5		
		X1	Y1	Z1	X2	Y2	Z2	X3	Y3	Z3	X4	Y4	Z4	X5	Y5	Z5	X6	Y6	Z6	X7	Y7	Z7	X8	Y8	Z8	X9	Y9	Z9	X10	Y10	Z10	X11	Y11	Z11	X12	Y12	Z12	X13	Y13	Z13	X14	Y14	Z14	X15	Y15	Z15	X16	Y16	Z16	X17	Y17	Z17	X18	Y18	Z18	X19	Y19	Z19	X20	Y20	Z20	X21	Y21	Z21	X22	Y22	Z22	X23	Y23	Z23
4963	49.630000	0.093380	1.531165	-0.109966	0.169221	1.304264	-0.138458	-0.121094	1.167720	-0.322705	-0.067871	1.130515	-0.280597	-0.212205	0.942987	-0.440231	-0.253816	0.978791	-0.452586	-0.040650	1.458126	-0.259410	-0.177002	0.989195	-0.447535	-0.205792	0.949976	-0.472918	-0.224953	0.969312	-0.479767	-0.208114	1.020434	-0.458349	-0.128264	1.276786	-0.324058	-0.071350	1.275859	-0.343666	-0.057963	1.338080	-0.340251	-0.109227	1.347263	-0.312563	-0.034950	1.418318	0.018322	-0.084528	1.362437	-0.021055	-0.057567	1.413241	-0.019521	-0.053122	1.370031	0.034899	0.000533	1.439646	-0.038647	-0.051138	1.226173	-0.011194	-0.024332	1.424532	-0.226911	-0.076217	1.383996	-0.028508
4964	49.640000	0.093447	1.531173	-0.109834	0.169303	1.304276	-0.138324	-0.120989	1.167759	-0.322705	-0.067774	1.130545	-0.280595	-0.212165	0.943083	-0.440254	-0.253760	0.978896	-0.452632	-0.040492	1.458165	-0.259374	-0.176923	0.989270	-0.447572	-0.205734	0.950106	-0.472943	-0.224863	0.969408	-0.479791	-0.208033	1.020515	-0.458388	-0.128153	1.276813	-0.324056	-0.071229	1.275875	-0.343666	-0.057807	1.338110	-0.340278	-0.109069	1.347301	-0.312572	-0.034967	1.418299	0.018352	-0.084527	1.362425	-0.021055	-0.057568	1.413222	-0.019497	-0.053136	1.370004	0.034907	0.000556	1.439641	-0.038589	-0.051134	1.226163	-0.011210	-0.024160	1.424557	-0.226941	-0.076224	1.383987	-0.028490
4965	49.650000	0.093518	1.531177	-0.109701	0.169385	1.304284	-0.138190	-0.120887	1.167796	-0.322701	-0.067680	1.130575	-0.280588	-0.212122	0.943169	-0.440265	-0.253704	0.978991	-0.452662	-0.040331	1.458203	-0.259339	-0.176863	0.989331	-0.447574	-0.205652	0.950143	-0.472936	-0.224805	0.969486	-0.479787	-0.207969	1.020586	-0.458394	-0.128045	1.276855	-0.324062	-0.071106	1.275886	-0.343678	-0.057670	1.338150	-0.340282	-0.108877	1.347363	-0.312601	-0.034976	1.418299	0.018369	-0.084519	1.362436	-0.021079	-0.057563	1.413227	-0.019486	-0.053163	1.369992	0.034907	0.000579	1.439634	-0.038533	-0.051134	1.226152	-0.011229	-0.023988	1.424582	-0.226972	-0.076215	1.384002	-0.028506
4966	49.660000	0.093583	1.531188	-0.109564	0.169468	1.304302	-0.138059	-0.120789	1.167833	-0.322690	-0.067590	1.130604	-0.280574	-0.212074	0.943245	-0.440269	-0.253646	0.979075	-0.452675	-0.040172	1.458250	-0.259303	-0.176815	0.989394	-0.447558	-0.205617	0.950252	-0.472941	-0.224753	0.969551	-0.479786	-0.207917	1.020656	-0.458401	-0.127945	1.276893	-0.324077	-0.070981	1.275929	-0.343675	-0.057541	1.338186	-0.340305	-0.108717	1.347427	-0.312622	-0.034985	1.418279	0.018404	-0.084508	1.362432	-0.021098	-0.057547	1.413221	-0.019485	-0.053187	1.369980	0.034905	0.000600	1.439628	-0.038475	-0.051131	1.226140	-0.011254	-0.023820	1.424608	-0.227002	-0.076176	1.383981	-0.028535
4967	49.670000	0.093652	1.531196	-0.109426	0.169551	1.304314	-0.137924	-0.120694	1.167869	-0.322671	-0.067503	1.130633	-0.280552	-0.212024	0.943312	-0.440259	-0.253589	0.979149	-0.452669	-0.040008	1.458294	-0.259267	-0.176765	0.989458	-0.447561	-0.205557	0.950320	-0.472932	-0.224686	0.969637	-0.479794	-0.207859	1.020739	-0.458396	-0.127839	1.276949	-0.324092	-0.070849	1.275968	-0.343681	-0.057411	1.338219	-0.340301	-0.108555	1.347487	-0.312649	-0.034994	1.418259	0.018428	-0.084492	1.362419	-0.021118	-0.057536	1.413216	-0.019466	-0.053216	1.369956	0.034913	0.000621	1.439621	-0.038418	-0.051131	1.226128	-0.011279	-0.023656	1.424634	-0.227029	-0.076154	1.383989	-0.028531
4968	49.680000	0.093718	1.531207	-0.109285	0.169635	1.304332	-0.137789	-0.120605	1.167903	-0.322645	-0.067421	1.130662	-0.280521	-0.211971	0.943370	-0.440238	-0.253532	0.979213	-0.452645	-0.039846	1.458341	-0.259230	-0.176699	0.989539	-0.447547	-0.205495	0.950408	-0.472940	-0.224643	0.969712	-0.479772	-0.207803	1.020812	-0.458378	-0.127726	1.276993	-0.324102	-0.070733	1.275982	-0.343668	-0.057288	1.338241	-0.340298	-0.108418	1.347537	-0.312649	-0.035009	1.418242	0.018471	-0.084493	1.362402	-0.021128	-0.057540	1.413205	-0.019449	-0.053239	1.369924	0.034922	0.000642	1.439615	-0.038359	-0.051128	1.226116	-0.011305	-0.023498	1.424661	-0.227052	-0.076153	1.383975	-0.028524
4969	49.690000	0.093782	1.531221	-0.109143	0.169720	1.304354	-0.137655	-0.120520	1.167937	-0.322610	-0.067344	1.130690	-0.280481	-0.211915	0.943421	-0.440207	-0.253476	0.979267	-0.452603	-0.039685	1.458391	-0.259191	-0.176633	0.989603	-0.447541	-0.205446	0.950472	-0.472911	-0.224600	0.969794	-0.479744	-0.207733	1.020894	-0.458355	-0.127623	1.277032	-0.324093	-0.070648	1.275987	-0.343645	-0.057182	1.338246	-0.340285	-0.108296	1.347571	-0.312650	-0.035015	1.418231	0.018502	-0.084474	1.362398	-0.021124	-0.057521	1.413197	-0.019417	-0.053258	1.369900	0.034941	0.000662	1.439611	-0.038299	-0.051122	1.226103	-0.011330	-0.023347	1.424689	-0.227068	-0.076136	1.383972	-0.028519
4970	49.700000	0.093848	1.531234	-0.109001	0.169806	1.304375	-0.137520	-0.120439	1.167970	-0.322567	-0.067271	1.130719	-0.280432	-0.211860	0.943464	-0.440161	-0.253422	0.979315	-0.452544	-0.039525	1.458437	-0.259150	-0.176559	0.989707	-0.447539	-0.205399	0.950516	-0.472873	-0.224546	0.969849	-0.479707	-0.207684	1.020943	-0.458321	-0.127528	1.277056	-0.324063	-0.070497	1.276069	-0.343611	-0.057085	1.338250	-0.340264	-0.108184	1.347598	-0.312639	-0.035016	1.418209	0.018537	-0.084459	1.362387	-0.021127	-0.057523	1.413180	-0.019390	-0.053276	1.369878	0.034961	0.000684	1.439605	-0.038238	-0.051114	1.226091	-0.011352	-0.023204	1.424718	-0.227077	-0.076117	1.383954	-0.028509
4971	49.710000	0.093905	1.531255	-0.108858	0.169892	1.304407	-0.137390	-0.120364	1.168003	-0.322515	-0.067202	1.130748	-0.280374	-0.211805	0.943502	-0.440107	-0.253370	0.979355	-0.452472	-0.039375	1.458491	-0.259105	-0.176523	0.989693	-0.447459	-0.205341	0.950571	-0.472811	-0.224492	0.969890	-0.479657	-0.207623	1.020999	-0.458277	-0.127440	1.277079	-0.324021	-0.070412	1.276077	-0.343583	-0.056996	1.338262	-0.340258	-0.108080	1.347625	-0.312630	-0.035029	1.418198	0.018587	-0.084444	1.362365	-0.021134	-0.057507	1.413180	-0.019351	-0.053289	1.369855	0.034972	0.000704	1.439603	-0.038173	-0.051099	1.226079	-0.011374	-0.023070	1.424748	-0.227079	-0.076084	1.383953	-0.028519
4972	49.720000	0.093963	1.531274	-0.108718	0.169976	1.304437	-0.137263	-0.120293	1.168034	-0.322455	-0.067137	1.130778	-0.280308	-0.211753	0.943535	-0.440040	-0.253322	0.979390	-0.452386	-0.039229	1.458542	-0.259058	-0.176460	0.989752	-0.447396	-0.205271	0.950602	-0.472722	-0.224425	0.969914	-0.479594	-0.207558	1.021020	-0.458204	-0.127349	1.277101	-0.323972	-0.070338	1.276087	-0.343546	-0.056895	1.338266	-0.340223	-0.107978	1.347648	-0.312598	-0.035041	1.418171	0.018639	-0.084422	1.362360	-0.021128	-0.057486	1.413164	-0.019324	-0.053297	1.369830	0.035001	0.000727	1.439601	-0.038108	-0.051082	1.226068	-0.011392	-0.022946	1.424780	-0.227073	-0.076082	1.383938	-0.028483
4973	49.730000	0.094014	1.531300	-0.108578	0.170058	1.304476	-0.137145	-0.120227	1.168065	-0.322386	-0.067076	1.130808	-0.280234	-0.211705	0.943565	-0.439964	-0.253278	0.979421	-0.452291	-0.039095	1.458598	-0.259006	-0.176409	0.989730	-0.447287	-0.205219	0.950609	-0.472630	-0.224373	0.969944	-0.479517	-0.207509	1.021054	-0.458144	-0.127263	1.277122	-0.323917	-0.070269	1.276088	-0.343496	-0.056806	1.338266	-0.340183	-0.107891	1.347674	-0.312559	-0.035032	1.418160	0.018681	-0.084400	1.362350	-0.021117	-0.057462	1.413161	-0.019298	-0.053309	1.369809	0.035026	0.000748	1.439601	-0.038041	-0.051059	1.226058	-0.011408	-0.022832	1.424813	-0.227060	-0.076059	1.383931	-0.028481
4974	49.740000	0.094059	1.531331	-0.108442	0.170137	1.304522	-0.137038	-0.120165	1.168096	-0.322311	-0.067018	1.130840	-0.280153	-0.211661	0.943591	-0.439881	-0.253239	0.979448	-0.452189	-0.038976	1.458658	-0.258950	-0.176365	0.989789	-0.447195	-0.205187	0.950630	-0.472531	-0.224328	0.969972	-0.479422	-0.207454	1.020907	-0.457929	-0.127163	1.277142	-0.323852	-0.070208	1.276095	-0.343449	-0.056704	1.338278	-0.340144	-0.107805	1.347682	-0.312509	-0.035042	1.418132	0.018728	-0.084383	1.362349	-0.021106	-0.057453	1.413144	-0.019262	-0.053319	1.369781	0.035060	0.000769	1.439604	-0.037972	-0.051030	1.226048	-0.011422	-0.022729	1.424849	-0.227040	-0.076030	1.383906	-0.028466
4975	49.750000	0.094100	1.531362	-0.108311	0.170210	1.304568	-0.136940	-0.120107	1.168127	-0.322228	-0.066962	1.130873	-0.280065	-0.211627	0.943616	-0.439787	-0.253208	0.979474	-0.452081	-0.038869	1.458719	-0.258891	-0.176342	0.989813	-0.447090	-0.205187	0.950633	-0.472410	-0.224298	0.969984	-0.479309	-0.207422	1.020892	-0.457802	-0.127083	1.277173	-0.323798	-0.070127	1.276112	-0.343408	-0.056632	1.338268	-0.340095	-0.107727	1.347707	-0.312482	-0.035050	1.418113	0.018767	-0.084369	1.362333	-0.021095	-0.057494	1.413146	-0.019158	-0.053324	1.369763	0.035080	0.000792	1.439607	-0.037903	-0.050998	1.226039	-0.011432	-0.022637	1.424888	-0.227015	-0.075988	1.383907	-0.028476
4976	49.760000	0.094130	1.531402	-0.108183	0.170277	1.304626	-0.136859	-0.120056	1.168157	-0.322139	-0.066911	1.130907	-0.279972	-0.211599	0.943639	-0.439691	-0.253182	0.979499	-0.451973	-0.038784	1.458789	-0.258826	-0.176347	0.989849	-0.446998	-0.205182	0.950673	-0.472311	-0.224310	0.970029	-0.479181	-0.207416	1.020922	-0.457677	-0.126992	1.277189	-0.323735	-0.070027	1.276145	-0.343352	-0.056537	1.338269	-0.340041	-0.107648	1.347724	-0.312427	-0.035055	1.418094	0.018811	-0.084363	1.362313	-0.021077	-0.057478	1.413130	-0.019136	-0.053342	1.369736	0.035117	0.000812	1.439613	-0.037832	-0.050960	1.226031	-0.011442	-0.022556	1.424929	-0.226984	-0.075980	1.383882	-0.028432
4977	49.770000	0.094156	1.531441	-0.108062	0.170337	1.304683	-0.136789	-0.120009	1.168188	-0.322044	-0.066864	1.130943	-0.279873	-0.211583	0.943661	-0.439586	-0.253165	0.979524	-0.451863	-0.038714	1.458858	-0.258758	-0.176348	0.989891	-0.446897	-0.205173	0.950717	-0.472216	-0.224306	0.970067	-0.479056	-0.207447	1.020977	-0.457541	-0.126922	1.277229	-0.323664	-0.069950	1.276174	-0.343301	-0.056461	1.338290	-0.339993	-0.107575	1.347759	-0.312383	-0.035056	1.418082	0.018852	-0.084334	1.362317	-0.021061	-0.057417	1.413129	-0.019126	-0.053343	1.369717	0.035155	0.000832	1.439620	-0.037761	-0.050921	1.226023	-0.011449	-0.022484	1.424973	-0.226950	-0.075950	1.383883	-0.028418
4978	49.780000	0.094174	1.531484	-0.107946	0.170388	1.304745	-0.136735	-0.119968	1.168218	-0.321943	-0.066821	1.130980	-0.279771	-0.211577	0.943684	-0.439479	-0.253157	0.979550	-0.451754	-0.038664	1.458934	-0.258687	-0.176368	0.989935	-0.446782	-0.205175	0.950767	-0.472097	-0.224276	0.970236	-0.479047	-0.207460	1.021009	-0.457421	-0.126860	1.277272	-0.323607	-0.069878	1.276215	-0.343241	-0.056395	1.338310	-0.339932	-0.107517	1.347803	-0.312333	-0.035053	1.418063	0.018903	-0.084325	1.362308	-0.021028	-0.057457	1.413118	-0.019033	-0.053346	1.369693	0.035189	0.000850	1.439629	-0.037689	-0.050879	1.226017	-0.011455	-0.022423	1.425019	-0.226913	-0.075914	1.383853	-0.028392
4979	49.790000	0.094184	1.531530	-0.107836	0.170429	1.304811	-0.136696	-0.119935	1.168249	-0.321838	-0.066784	1.131018	-0.279665	-0.211582	0.943706	-0.439369	-0.253157	0.979577	-0.451648	-0.038633	1.459013	-0.258611	-0.176354	0.989987	-0.446680	-0.205183	0.950795	-0.471979	-0.224247	0.970380	-0.479011	-0.207450	1.021039	-0.457295	-0.126814	1.277312	-0.323525	-0.069852	1.276241	-0.343176	-0.056351	1.338341	-0.339882	-0.107473	1.347835	-0.312250	-0.035056	1.418052	0.018950	-0.084298	1.362303	-0.021003	-0.057431	1.413111	-0.018985	-0.053356	1.369701	0.035220	0.000867	1.439638	-0.037617	-0.050837	1.226011	-0.011459	-0.022370	1.425066	-0.226875	-0.075888	1.383847	-0.028364
